<svg xmlns="http://www.w3.org/2000/svg" width="75" viewBox="0 0 75 75" height="75" version="1.0"><g fill="#F0F"><g><g><path d="M 27.34375 1.011719 C 40.609375 1.011719 52.15625 -5.976562 50.535156 -18.632812 C 49.117188 -33.621094 16.40625 -34.738281 16.40625 -48.507812 C 16.40625 -53.976562 21.066406 -56.105469 26.433594 -56.105469 C 32.40625 -56.105469 36.355469 -53.574219 36.355469 -49.523438 C 36.355469 -44.457031 32.914062 -44.054688 32.914062 -44.054688 C 32.914062 -40.507812 35.75 -37.269531 40.105469 -37.269531 C 43.546875 -37.269531 46.179688 -39.496094 46.179688 -43.039062 C 46.179688 -52.15625 36.457031 -57.523438 26.230469 -57.523438 C 13.671875 -57.523438 3.039062 -51.851562 4.457031 -39.191406 C 6.277344 -22.683594 38.585938 -20.660156 38.585938 -7.898438 C 38.585938 -1.722656 30.988281 -0.304688 26.734375 -0.304688 C 21.164062 -0.304688 14.582031 -2.734375 14.582031 -8.609375 C 14.582031 -9.113281 14.582031 -9.621094 14.683594 -10.230469 C 15.191406 -13.367188 18.230469 -13.773438 18.230469 -13.773438 C 18.230469 -17.925781 14.988281 -21.570312 10.027344 -21.570312 C 6.078125 -21.570312 3.039062 -18.9375 3.039062 -14.886719 C 3.039062 -4.960938 14.886719 1.011719 27.34375 1.011719 Z M 27.34375 1.011719" transform="translate(3.455 60.98)"/></g></g></g><g fill="#0FF"><g><g><path d="M 27.34375 1.011719 C 40.609375 1.011719 52.15625 -5.976562 50.535156 -18.632812 C 49.117188 -33.621094 16.40625 -34.738281 16.40625 -48.507812 C 16.40625 -53.976562 21.066406 -56.105469 26.433594 -56.105469 C 32.40625 -56.105469 36.355469 -53.574219 36.355469 -49.523438 C 36.355469 -44.457031 32.914062 -44.054688 32.914062 -44.054688 C 32.914062 -40.507812 35.75 -37.269531 40.105469 -37.269531 C 43.546875 -37.269531 46.179688 -39.496094 46.179688 -43.039062 C 46.179688 -52.15625 36.457031 -57.523438 26.230469 -57.523438 C 13.671875 -57.523438 3.039062 -51.851562 4.457031 -39.191406 C 6.277344 -22.683594 38.585938 -20.660156 38.585938 -7.898438 C 38.585938 -1.722656 30.988281 -0.304688 26.734375 -0.304688 C 21.164062 -0.304688 14.582031 -2.734375 14.582031 -8.609375 C 14.582031 -9.113281 14.582031 -9.621094 14.683594 -10.230469 C 15.191406 -13.367188 18.230469 -13.773438 18.230469 -13.773438 C 18.230469 -17.925781 14.988281 -21.570312 10.027344 -21.570312 C 6.078125 -21.570312 3.039062 -18.9375 3.039062 -14.886719 C 3.039062 -4.960938 14.886719 1.011719 27.34375 1.011719 Z M 27.34375 1.011719" transform="translate(5.245 62.77)"/></g></g></g><g fill="#FF4500"><g><g><path d="M 27.34375 1.011719 C 40.609375 1.011719 52.15625 -5.976562 50.535156 -18.632812 C 49.117188 -33.621094 16.40625 -34.738281 16.40625 -48.507812 C 16.40625 -53.976562 21.066406 -56.105469 26.433594 -56.105469 C 32.40625 -56.105469 36.355469 -53.574219 36.355469 -49.523438 C 36.355469 -44.457031 32.914062 -44.054688 32.914062 -44.054688 C 32.914062 -40.507812 35.75 -37.269531 40.105469 -37.269531 C 43.546875 -37.269531 46.179688 -39.496094 46.179688 -43.039062 C 46.179688 -52.15625 36.457031 -57.523438 26.230469 -57.523438 C 13.671875 -57.523438 3.039062 -51.851562 4.457031 -39.191406 C 6.277344 -22.683594 38.585938 -20.660156 38.585938 -7.898438 C 38.585938 -1.722656 30.988281 -0.304688 26.734375 -0.304688 C 21.164062 -0.304688 14.582031 -2.734375 14.582031 -8.609375 C 14.582031 -9.113281 14.582031 -9.621094 14.683594 -10.230469 C 15.191406 -13.367188 18.230469 -13.773438 18.230469 -13.773438 C 18.230469 -17.925781 14.988281 -21.570312 10.027344 -21.570312 C 6.078125 -21.570312 3.039062 -18.9375 3.039062 -14.886719 C 3.039062 -4.960938 14.886719 1.011719 27.34375 1.011719 Z M 27.34375 1.011719" transform="translate(4.35 61.875)"/></g></g></g><g fill="#F0F"><g><g><path d="M 24.226562 0.75 L 24.300781 0.75 C 29.398438 0.75 36 -1.199219 39.601562 -7.875 L 38.699219 -7.875 C 33.976562 -0.601562 28.273438 -0.226562 25.050781 -0.226562 C 17.101562 -0.226562 14.175781 -8.925781 14.175781 -20.925781 C 14.175781 -30.976562 16.351562 -41.550781 24.824219 -41.550781 C 28.574219 -41.550781 31.648438 -38.925781 30.75 -33.976562 C 30.300781 -31.425781 27.898438 -31.125 27.898438 -31.125 C 27.898438 -27.824219 30.449219 -24.898438 34.425781 -24.898438 C 37.574219 -24.898438 39.976562 -27 39.976562 -30.226562 C 39.976562 -36.675781 31.800781 -42.523438 24.449219 -42.523438 C 11.851562 -42.523438 1.875 -32.773438 1.875 -20.851562 C 1.875 -8.925781 11.851562 0.75 24.226562 0.75 Z M 24.226562 0.75" transform="translate(26.713 68.187)"/></g></g></g><g fill="#0FF"><g><g><path d="M 24.226562 0.75 L 24.300781 0.75 C 29.398438 0.75 36 -1.199219 39.601562 -7.875 L 38.699219 -7.875 C 33.976562 -0.601562 28.273438 -0.226562 25.050781 -0.226562 C 17.101562 -0.226562 14.175781 -8.925781 14.175781 -20.925781 C 14.175781 -30.976562 16.351562 -41.550781 24.824219 -41.550781 C 28.574219 -41.550781 31.648438 -38.925781 30.75 -33.976562 C 30.300781 -31.425781 27.898438 -31.125 27.898438 -31.125 C 27.898438 -27.824219 30.449219 -24.898438 34.425781 -24.898438 C 37.574219 -24.898438 39.976562 -27 39.976562 -30.226562 C 39.976562 -36.675781 31.800781 -42.523438 24.449219 -42.523438 C 11.851562 -42.523438 1.875 -32.773438 1.875 -20.851562 C 1.875 -8.925781 11.851562 0.75 24.226562 0.75 Z M 24.226562 0.75" transform="translate(28.039 69.513)"/></g></g></g><g fill="#FF4500"><g><g><path d="M 24.226562 0.75 L 24.300781 0.75 C 29.398438 0.75 36 -1.199219 39.601562 -7.875 L 38.699219 -7.875 C 33.976562 -0.601562 28.273438 -0.226562 25.050781 -0.226562 C 17.101562 -0.226562 14.175781 -8.925781 14.175781 -20.925781 C 14.175781 -30.976562 16.351562 -41.550781 24.824219 -41.550781 C 28.574219 -41.550781 31.648438 -38.925781 30.75 -33.976562 C 30.300781 -31.425781 27.898438 -31.125 27.898438 -31.125 C 27.898438 -27.824219 30.449219 -24.898438 34.425781 -24.898438 C 37.574219 -24.898438 39.976562 -27 39.976562 -30.226562 C 39.976562 -36.675781 31.800781 -42.523438 24.449219 -42.523438 C 11.851562 -42.523438 1.875 -32.773438 1.875 -20.851562 C 1.875 -8.925781 11.851562 0.75 24.226562 0.75 Z M 24.226562 0.75" transform="translate(27.376 68.85)"/></g></g></g></svg>